<?xml version="1.0" standalone="no"?>
<!DOCTYPE svg PUBLIC "-//W3C//DTD SVG 20010904//EN"
 "http://www.w3.org/TR/2001/REC-SVG-20010904/DTD/svg10.dtd">
<svg version="1.0" xmlns="http://www.w3.org/2000/svg"
 width="133.000000pt" height="133.000000pt" viewBox="0 0 133.000000 133.000000"
 preserveAspectRatio="xMidYMid meet">

<g transform="translate(0.000000,133.000000) scale(0.100000,-0.100000)"
fill="#000000" stroke="none">
<path d="M545 1244 c-129 -20 -283 -55 -303 -70 -15 -11 -15 -21 -5 -100 7
-49 17 -106 23 -127 l11 -38 47 42 c58 51 182 112 288 141 66 18 106 22 244
22 185 1 260 -15 353 -74 26 -16 50 -30 53 -30 12 0 -32 68 -73 111 -96 102
-209 140 -417 138 -72 -1 -171 -7 -221 -15z"/>
<path d="M115 1156 c-39 -11 -40 -13 -37 -51 8 -118 56 -266 118 -362 l34 -53
-28 -14 c-15 -7 -53 -22 -84 -32 -32 -10 -58 -21 -58 -26 0 -4 11 -15 25 -24
34 -22 95 -14 146 21 l40 26 68 -63 c38 -35 131 -107 207 -160 185 -129 257
-192 328 -282 l59 -76 60 0 c69 0 69 -1 8 88 -84 123 -182 205 -395 327 -74
43 -162 100 -195 127 -136 110 -211 269 -237 506 -3 34 -9 62 -13 61 -3 0 -24
-6 -46 -13z"/>
</g>
</svg>
